<?xml version="1.0" encoding="UTF-8" standalone="no"?>
<!DOCTYPE svg PUBLIC "-//W3C//DTD SVG 1.1//EN"
 "http://www.w3.org/Graphics/SVG/1.1/DTD/svg11.dtd">
<!-- Generated by graphviz version 2.40.1 (20161225.0304)
 -->
<!-- Title: dependencies Pages: 1 -->
<svg width="2379pt" height="396pt"
 viewBox="0.00 0.00 2379.00 395.59" xmlns="http://www.w3.org/2000/svg" xmlns:xlink="http://www.w3.org/1999/xlink">
<g id="graph0" class="graph" transform="scale(1 1) rotate(0) translate(4 391.5901)">
<title>dependencies</title>
<polygon fill="#ffffff" stroke="transparent" points="-4,4 -4,-391.5901 2375,-391.5901 2375,4 -4,4"/>
<text text-anchor="start" x="1164.5091" y="-42.4" font-family="sans-serif" font-weight="bold" font-size="14.00" fill="#000000">Legend</text>
<polygon fill="#ffffb3" stroke="transparent" points="951.5,-10 951.5,-30 971.5,-30 971.5,-10 951.5,-10"/>
<text text-anchor="start" x="975.129" y="-15.4" font-family="sans-serif" font-size="14.00" fill="#000000"> &#160;Declarations</text>
<polygon fill="#8dd3c7" stroke="transparent" points="1064.5,-10 1064.5,-30 1084.5,-30 1084.5,-10 1064.5,-10"/>
<text text-anchor="start" x="1088.2251" y="-15.4" font-family="sans-serif" font-size="14.00" fill="#000000"> &#160;Module</text>
<polygon fill="#80b1d3" stroke="transparent" points="1150.5,-10 1150.5,-30 1170.5,-30 1170.5,-10 1150.5,-10"/>
<text text-anchor="start" x="1174.2812" y="-15.4" font-family="sans-serif" font-size="14.00" fill="#000000"> &#160;Bootstrap</text>
<polygon fill="#fdb462" stroke="transparent" points="1247.5,-10 1247.5,-30 1267.5,-30 1267.5,-10 1247.5,-10"/>
<text text-anchor="start" x="1271.1732" y="-15.4" font-family="sans-serif" font-size="14.00" fill="#000000"> &#160;Providers</text>
<polygon fill="#fb8072" stroke="transparent" points="1343.5,-10 1343.5,-30 1363.5,-30 1363.5,-10 1343.5,-10"/>
<text text-anchor="start" x="1367.2258" y="-15.4" font-family="sans-serif" font-size="14.00" fill="#000000"> &#160;Exports</text>
<g id="clust1" class="cluster">
<title>cluster_AppModule</title>
<polygon fill="none" stroke="#000000" stroke-dasharray="1,5" points="8,-70 8,-379.5901 2363,-379.5901 2363,-70 8,-70"/>
</g>
<g id="clust2" class="cluster">
<title>cluster_AppModule_declarations</title>
<polygon fill="none" stroke="#000000" points="168,-189.5901 168,-241.5901 2355,-241.5901 2355,-189.5901 168,-189.5901"/>
</g>
<g id="clust3" class="cluster">
<title>cluster_AppModule_AppComponent_providers</title>
<polygon fill="none" stroke="#000000" points="1561,-78 1561,-176.5901 2355,-176.5901 2355,-78 1561,-78"/>
</g>
<g id="clust18" class="cluster">
<title>cluster_AppModule_imports</title>
<polygon fill="none" stroke="#000000" points="16,-189.5901 16,-241.5901 160,-241.5901 160,-189.5901 16,-189.5901"/>
</g>
<g id="clust19" class="cluster">
<title>cluster_AppModule_exports</title>
<polygon fill="none" stroke="#000000" points="914,-319.5901 914,-371.5901 1054,-371.5901 1054,-319.5901 914,-319.5901"/>
</g>
<g id="clust20" class="cluster">
<title>cluster_AppModule_bootstrap</title>
<polygon fill="none" stroke="#000000" points="1062,-319.5901 1062,-371.5901 1186,-371.5901 1186,-319.5901 1062,-319.5901"/>
</g>
<!-- AppComponent -->
<g id="node1" class="node">
<title>AppComponent</title>
<polygon fill="#ffffb3" stroke="#000000" points="2346.9399,-233.5901 2241.0601,-233.5901 2241.0601,-197.5901 2346.9399,-197.5901 2346.9399,-233.5901"/>
<text text-anchor="middle" x="2294" y="-211.3901" font-family="Times,serif" font-size="14.00" fill="#000000">AppComponent</text>
</g>
<!-- AppModule -->
<g id="node16" class="node">
<title>AppModule</title>
<polygon fill="#8dd3c7" stroke="#000000" points="1095.6571,-298.5901 1092.6571,-302.5901 1071.6571,-302.5901 1068.6571,-298.5901 1012.3429,-298.5901 1012.3429,-262.5901 1095.6571,-262.5901 1095.6571,-298.5901"/>
<text text-anchor="middle" x="1054" y="-276.3901" font-family="Times,serif" font-size="14.00" fill="#000000">AppModule</text>
</g>
<!-- AppComponent&#45;&gt;AppModule -->
<g id="edge1" class="edge">
<title>AppComponent&#45;&gt;AppModule</title>
<path fill="none" stroke="#000000" d="M2294,-233.9128C2294,-257.2502 2294,-294.5901 2294,-294.5901 2294,-294.5901 1105.9675,-294.5901 1105.9675,-294.5901"/>
<polygon fill="#000000" stroke="#000000" points="1105.9676,-291.0902 1095.9675,-294.5901 1105.9675,-298.0902 1105.9676,-291.0902"/>
</g>
<!-- DialogTooltipInfo -->
<g id="node2" class="node">
<title>DialogTooltipInfo</title>
<polygon fill="#ffffb3" stroke="#000000" points="2223.1485,-233.5901 2104.8515,-233.5901 2104.8515,-197.5901 2223.1485,-197.5901 2223.1485,-233.5901"/>
<text text-anchor="middle" x="2164" y="-211.3901" font-family="Times,serif" font-size="14.00" fill="#000000">DialogTooltipInfo</text>
</g>
<!-- DialogTooltipInfo&#45;&gt;AppModule -->
<g id="edge3" class="edge">
<title>DialogTooltipInfo&#45;&gt;AppModule</title>
<path fill="none" stroke="#000000" d="M2164,-233.7455C2164,-255.9419 2164,-290.5901 2164,-290.5901 2164,-290.5901 1105.8221,-290.5901 1105.8221,-290.5901"/>
<polygon fill="#000000" stroke="#000000" points="1105.8221,-287.0902 1095.8221,-290.5901 1105.822,-294.0902 1105.8221,-287.0902"/>
</g>
<!-- DragDropDirectiveDirective -->
<g id="node3" class="node">
<title>DragDropDirectiveDirective</title>
<polygon fill="#ffffb3" stroke="#000000" points="2086.4146,-233.5901 1909.5854,-233.5901 1909.5854,-197.5901 2086.4146,-197.5901 2086.4146,-233.5901"/>
<text text-anchor="middle" x="1998" y="-211.3901" font-family="Times,serif" font-size="14.00" fill="#000000">DragDropDirectiveDirective</text>
</g>
<!-- DragDropDirectiveDirective&#45;&gt;AppModule -->
<g id="edge4" class="edge">
<title>DragDropDirectiveDirective&#45;&gt;AppModule</title>
<path fill="none" stroke="#000000" d="M1998,-233.8743C1998,-254.9111 1998,-286.5901 1998,-286.5901 1998,-286.5901 1105.7805,-286.5901 1105.7805,-286.5901"/>
<polygon fill="#000000" stroke="#000000" points="1105.7806,-283.0902 1095.7805,-286.5901 1105.7805,-290.0902 1105.7806,-283.0902"/>
</g>
<!-- ExecutionComponent -->
<g id="node4" class="node">
<title>ExecutionComponent</title>
<polygon fill="#ffffb3" stroke="#000000" points="1891.0954,-233.5901 1752.9046,-233.5901 1752.9046,-197.5901 1891.0954,-197.5901 1891.0954,-233.5901"/>
<text text-anchor="middle" x="1822" y="-211.3901" font-family="Times,serif" font-size="14.00" fill="#000000">ExecutionComponent</text>
</g>
<!-- ExecutionComponent&#45;&gt;AppModule -->
<g id="edge5" class="edge">
<title>ExecutionComponent&#45;&gt;AppModule</title>
<path fill="none" stroke="#000000" d="M1822,-233.8981C1822,-253.7356 1822,-282.5901 1822,-282.5901 1822,-282.5901 1105.8364,-282.5901 1105.8364,-282.5901"/>
<polygon fill="#000000" stroke="#000000" points="1105.8365,-279.0902 1095.8364,-282.5901 1105.8364,-286.0902 1105.8365,-279.0902"/>
</g>
<!-- ExperimentsComponent -->
<g id="node5" class="node">
<title>ExperimentsComponent</title>
<polygon fill="#ffffb3" stroke="#000000" points="1735.0912,-233.5901 1582.9088,-233.5901 1582.9088,-197.5901 1735.0912,-197.5901 1735.0912,-233.5901"/>
<text text-anchor="middle" x="1659" y="-211.3901" font-family="Times,serif" font-size="14.00" fill="#000000">ExperimentsComponent</text>
</g>
<!-- ExperimentsComponent&#45;&gt;AppModule -->
<g id="edge6" class="edge">
<title>ExperimentsComponent&#45;&gt;AppModule</title>
<path fill="none" stroke="#000000" d="M1659,-233.8123C1659,-252.4186 1659,-278.5901 1659,-278.5901 1659,-278.5901 1106.0621,-278.5901 1106.0621,-278.5901"/>
<polygon fill="#000000" stroke="#000000" points="1106.0621,-275.0902 1096.0621,-278.5901 1106.0621,-282.0902 1106.0621,-275.0902"/>
</g>
<!-- InteractionDialogComponent -->
<g id="node6" class="node">
<title>InteractionDialogComponent</title>
<polygon fill="#ffffb3" stroke="#000000" points="1565.0716,-233.5901 1384.9284,-233.5901 1384.9284,-197.5901 1565.0716,-197.5901 1565.0716,-233.5901"/>
<text text-anchor="middle" x="1475" y="-211.3901" font-family="Times,serif" font-size="14.00" fill="#000000">InteractionDialogComponent</text>
</g>
<!-- InteractionDialogComponent&#45;&gt;AppModule -->
<g id="edge7" class="edge">
<title>InteractionDialogComponent&#45;&gt;AppModule</title>
<path fill="none" stroke="#000000" d="M1475,-233.6126C1475,-250.9634 1475,-274.5901 1475,-274.5901 1475,-274.5901 1105.9062,-274.5901 1105.9062,-274.5901"/>
<polygon fill="#000000" stroke="#000000" points="1105.9063,-271.0902 1095.9062,-274.5901 1105.9062,-278.0902 1105.9063,-271.0902"/>
</g>
<!-- LoginComponent -->
<g id="node7" class="node">
<title>LoginComponent</title>
<polygon fill="#ffffb3" stroke="#000000" points="1367.2758,-233.5901 1252.7242,-233.5901 1252.7242,-197.5901 1367.2758,-197.5901 1367.2758,-233.5901"/>
<text text-anchor="middle" x="1310" y="-211.3901" font-family="Times,serif" font-size="14.00" fill="#000000">LoginComponent</text>
</g>
<!-- LoginComponent&#45;&gt;AppModule -->
<g id="edge8" class="edge">
<title>LoginComponent&#45;&gt;AppModule</title>
<path fill="none" stroke="#000000" d="M1310,-233.5991C1310,-249.6394 1310,-270.5901 1310,-270.5901 1310,-270.5901 1105.7006,-270.5901 1105.7006,-270.5901"/>
<polygon fill="#000000" stroke="#000000" points="1105.7006,-267.0902 1095.7006,-270.5901 1105.7005,-274.0902 1105.7006,-267.0902"/>
</g>
<!-- LogsComponent -->
<g id="node8" class="node">
<title>LogsComponent</title>
<polygon fill="#ffffb3" stroke="#000000" points="1234.8301,-233.5901 1125.1699,-233.5901 1125.1699,-197.5901 1234.8301,-197.5901 1234.8301,-233.5901"/>
<text text-anchor="middle" x="1180" y="-211.3901" font-family="Times,serif" font-size="14.00" fill="#000000">LogsComponent</text>
</g>
<!-- LogsComponent&#45;&gt;AppModule -->
<g id="edge9" class="edge">
<title>LogsComponent&#45;&gt;AppModule</title>
<path fill="none" stroke="#000000" d="M1151.9023,-233.7144C1151.9023,-248.3732 1151.9023,-266.5901 1151.9023,-266.5901 1151.9023,-266.5901 1105.8034,-266.5901 1105.8034,-266.5901"/>
<polygon fill="#000000" stroke="#000000" points="1105.8034,-263.0902 1095.8034,-266.5901 1105.8034,-270.0902 1105.8034,-263.0902"/>
</g>
<!-- NgVarDirective -->
<g id="node9" class="node">
<title>NgVarDirective</title>
<polygon fill="#ffffb3" stroke="#000000" points="1107.1713,-233.5901 1000.8287,-233.5901 1000.8287,-197.5901 1107.1713,-197.5901 1107.1713,-233.5901"/>
<text text-anchor="middle" x="1054" y="-211.3901" font-family="Times,serif" font-size="14.00" fill="#000000">NgVarDirective</text>
</g>
<!-- NgVarDirective&#45;&gt;AppModule -->
<g id="edge10" class="edge">
<title>NgVarDirective&#45;&gt;AppModule</title>
<path fill="none" stroke="#000000" d="M1054,-233.6962C1054,-233.6962 1054,-252.581 1054,-252.581"/>
<polygon fill="#000000" stroke="#000000" points="1050.5001,-252.581 1054,-262.581 1057.5001,-252.5811 1050.5001,-252.581"/>
</g>
<!-- OplaComponent -->
<g id="node10" class="node">
<title>OplaComponent</title>
<polygon fill="#ffffb3" stroke="#000000" points="983.0452,-233.5901 874.9548,-233.5901 874.9548,-197.5901 983.0452,-197.5901 983.0452,-233.5901"/>
<text text-anchor="middle" x="929" y="-211.3901" font-family="Times,serif" font-size="14.00" fill="#000000">OplaComponent</text>
</g>
<!-- OplaComponent&#45;&gt;AppModule -->
<g id="edge11" class="edge">
<title>OplaComponent&#45;&gt;AppModule</title>
<path fill="none" stroke="#000000" d="M952.5223,-233.7144C952.5223,-248.3732 952.5223,-266.5901 952.5223,-266.5901 952.5223,-266.5901 1002.1392,-266.5901 1002.1392,-266.5901"/>
<polygon fill="#000000" stroke="#000000" points="1002.1393,-270.0902 1012.1392,-266.5901 1002.1392,-263.0902 1002.1393,-270.0902"/>
</g>
<!-- OplaI18nDirective -->
<g id="node11" class="node">
<title>OplaI18nDirective</title>
<polygon fill="#ffffb3" stroke="#000000" points="856.4552,-233.5901 735.5448,-233.5901 735.5448,-197.5901 856.4552,-197.5901 856.4552,-233.5901"/>
<text text-anchor="middle" x="796" y="-211.3901" font-family="Times,serif" font-size="14.00" fill="#000000">OplaI18nDirective</text>
</g>
<!-- OplaI18nDirective&#45;&gt;AppModule -->
<g id="edge12" class="edge">
<title>OplaI18nDirective&#45;&gt;AppModule</title>
<path fill="none" stroke="#000000" d="M796,-233.5991C796,-249.6394 796,-270.5901 796,-270.5901 796,-270.5901 1002.2611,-270.5901 1002.2611,-270.5901"/>
<polygon fill="#000000" stroke="#000000" points="1002.2611,-274.0902 1012.2611,-270.5901 1002.2611,-267.0902 1002.2611,-274.0902"/>
</g>
<!-- PapyrusSettingsDialog -->
<g id="node12" class="node">
<title>PapyrusSettingsDialog</title>
<polygon fill="#ffffb3" stroke="#000000" points="717.3188,-233.5901 572.6812,-233.5901 572.6812,-197.5901 717.3188,-197.5901 717.3188,-233.5901"/>
<text text-anchor="middle" x="645" y="-211.3901" font-family="Times,serif" font-size="14.00" fill="#000000">PapyrusSettingsDialog</text>
</g>
<!-- PapyrusSettingsDialog&#45;&gt;AppModule -->
<g id="edge13" class="edge">
<title>PapyrusSettingsDialog&#45;&gt;AppModule</title>
<path fill="none" stroke="#000000" d="M645,-233.6126C645,-250.9634 645,-274.5901 645,-274.5901 645,-274.5901 1002.1519,-274.5901 1002.1519,-274.5901"/>
<polygon fill="#000000" stroke="#000000" points="1002.1519,-278.0902 1012.1519,-274.5901 1002.1519,-271.0902 1002.1519,-278.0902"/>
</g>
<!-- PatternComponent -->
<g id="node13" class="node">
<title>PatternComponent</title>
<polygon fill="#ffffb3" stroke="#000000" points="554.486,-233.5901 433.514,-233.5901 433.514,-197.5901 554.486,-197.5901 554.486,-233.5901"/>
<text text-anchor="middle" x="494" y="-211.3901" font-family="Times,serif" font-size="14.00" fill="#000000">PatternComponent</text>
</g>
<!-- PatternComponent&#45;&gt;AppModule -->
<g id="edge14" class="edge">
<title>PatternComponent&#45;&gt;AppModule</title>
<path fill="none" stroke="#000000" d="M494,-233.8123C494,-252.4186 494,-278.5901 494,-278.5901 494,-278.5901 1001.909,-278.5901 1001.909,-278.5901"/>
<polygon fill="#000000" stroke="#000000" points="1001.909,-282.0902 1011.909,-278.5901 1001.9089,-275.0902 1001.909,-282.0902"/>
</g>
<!-- ReplaceallPipe -->
<g id="node14" class="node">
<title>ReplaceallPipe</title>
<polygon fill="#ffffb3" stroke="#000000" points="415.9692,-233.5901 316.0308,-233.5901 316.0308,-197.5901 415.9692,-197.5901 415.9692,-233.5901"/>
<text text-anchor="middle" x="366" y="-211.3901" font-family="Times,serif" font-size="14.00" fill="#000000">ReplaceallPipe</text>
</g>
<!-- ReplaceallPipe&#45;&gt;AppModule -->
<g id="edge15" class="edge">
<title>ReplaceallPipe&#45;&gt;AppModule</title>
<path fill="none" stroke="#000000" d="M366,-233.8981C366,-253.7356 366,-282.5901 366,-282.5901 366,-282.5901 1002.2554,-282.5901 1002.2554,-282.5901"/>
<polygon fill="#000000" stroke="#000000" points="1002.2554,-286.0902 1012.2554,-282.5901 1002.2553,-279.0902 1002.2554,-286.0902"/>
</g>
<!-- ResultsComponent -->
<g id="node15" class="node">
<title>ResultsComponent</title>
<polygon fill="#ffffb3" stroke="#000000" points="298.0548,-233.5901 175.9452,-233.5901 175.9452,-197.5901 298.0548,-197.5901 298.0548,-233.5901"/>
<text text-anchor="middle" x="237" y="-211.3901" font-family="Times,serif" font-size="14.00" fill="#000000">ResultsComponent</text>
</g>
<!-- ResultsComponent&#45;&gt;AppModule -->
<g id="edge16" class="edge">
<title>ResultsComponent&#45;&gt;AppModule</title>
<path fill="none" stroke="#000000" d="M237,-233.8743C237,-254.9111 237,-286.5901 237,-286.5901 237,-286.5901 1002.0787,-286.5901 1002.0787,-286.5901"/>
<polygon fill="#000000" stroke="#000000" points="1002.0787,-290.0902 1012.0787,-286.5901 1002.0787,-283.0902 1002.0787,-290.0902"/>
</g>
<!-- OplaI18nDirective  -->
<g id="node19" class="node">
<title>OplaI18nDirective </title>
<polygon fill="#fb8072" stroke="#000000" points="1046.456,-363.5901 921.544,-363.5901 921.544,-327.5901 1046.456,-327.5901 1046.456,-363.5901"/>
<text text-anchor="middle" x="984" y="-341.3901" font-family="Times,serif" font-size="14.00" fill="#000000">OplaI18nDirective </text>
</g>
<!-- AppModule&#45;&gt;OplaI18nDirective  -->
<g id="edge19" class="edge">
<title>AppModule&#45;&gt;OplaI18nDirective </title>
<path fill="none" stroke="#000000" stroke-dasharray="5,2" d="M1029.1997,-298.6962C1029.1997,-298.6962 1029.1997,-317.581 1029.1997,-317.581"/>
<polygon fill="#000000" stroke="#000000" points="1025.6998,-317.581 1029.1997,-327.581 1032.6998,-317.5811 1025.6998,-317.581"/>
</g>
<!-- AppComponent  -->
<g id="node20" class="node">
<title>AppComponent </title>
<polygon fill="#80b1d3" stroke="#000000" points="1178.439,-363.5901 1069.561,-363.5901 1069.561,-327.5901 1178.439,-327.5901 1178.439,-363.5901"/>
<text text-anchor="middle" x="1124" y="-341.3901" font-family="Times,serif" font-size="14.00" fill="#000000">AppComponent </text>
</g>
<!-- AppModule&#45;&gt;AppComponent  -->
<g id="edge20" class="edge">
<title>AppModule&#45;&gt;AppComponent </title>
<path fill="none" stroke="#000000" stroke-dasharray="1,5" d="M1082.6793,-298.6962C1082.6793,-298.6962 1082.6793,-317.581 1082.6793,-317.581"/>
<polygon fill="#000000" stroke="#000000" points="1079.1794,-317.581 1082.6793,-327.581 1086.1794,-317.5811 1079.1794,-317.581"/>
</g>
<!-- {
 &#160;&#160;&#160;provide: STEPPER_GLOBAL_OPTIONS, useValue: { displayDefaultIndicatorType: false }
} -->
<g id="node17" class="node">
<title>{
 &#160;&#160;&#160;provide: STEPPER_GLOBAL_OPTIONS, useValue: { displayDefaultIndicatorType: false }
}</title>
<ellipse fill="#fdb462" stroke="#000000" cx="1958" cy="-127.295" rx="389.4548" ry="41.0911"/>
<text text-anchor="middle" x="1958" y="-139.895" font-family="Times,serif" font-size="14.00" fill="#000000">{</text>
<text text-anchor="middle" x="1958" y="-123.095" font-family="Times,serif" font-size="14.00" fill="#000000"> &#160;&#160;&#160;provide: STEPPER_GLOBAL_OPTIONS, useValue: { displayDefaultIndicatorType: false }</text>
<text text-anchor="middle" x="1958" y="-106.295" font-family="Times,serif" font-size="14.00" fill="#000000">}</text>
</g>
<!-- {
 &#160;&#160;&#160;provide: STEPPER_GLOBAL_OPTIONS, useValue: { displayDefaultIndicatorType: false }
}&#45;&gt;AppComponent -->
<g id="edge2" class="edge">
<title>{
 &#160;&#160;&#160;provide: STEPPER_GLOBAL_OPTIONS, useValue: { displayDefaultIndicatorType: false }
}&#45;&gt;AppComponent</title>
<path fill="none" stroke="#000000" d="M2294,-148.2197C2294,-148.2197 2294,-187.5042 2294,-187.5042"/>
<polygon fill="#000000" stroke="#000000" points="2290.5001,-187.5042 2294,-197.5042 2297.5001,-187.5042 2290.5001,-187.5042"/>
</g>
<!-- AppRoutingModule -->
<g id="node18" class="node">
<title>AppRoutingModule</title>
<polygon fill="#8dd3c7" stroke="#000000" points="152.2744,-233.5901 149.2744,-237.5901 128.2744,-237.5901 125.2744,-233.5901 23.7256,-233.5901 23.7256,-197.5901 152.2744,-197.5901 152.2744,-233.5901"/>
<text text-anchor="middle" x="88" y="-211.3901" font-family="Times,serif" font-size="14.00" fill="#000000">AppRoutingModule</text>
</g>
<!-- AppRoutingModule&#45;&gt;AppModule -->
<g id="edge17" class="edge">
<title>AppRoutingModule&#45;&gt;AppModule</title>
<path fill="none" stroke="#000000" d="M66.5376,-233.9128C66.5376,-257.2502 66.5376,-294.5901 66.5376,-294.5901 66.5376,-294.5901 1002.2007,-294.5901 1002.2007,-294.5901"/>
<polygon fill="#000000" stroke="#000000" points="1002.2007,-298.0902 1012.2007,-294.5901 1002.2007,-291.0902 1002.2007,-298.0902"/>
</g>
<!-- AppRoutingModule&#45;&gt;AppModule -->
<g id="edge18" class="edge">
<title>AppRoutingModule&#45;&gt;AppModule</title>
<path fill="none" stroke="#000000" d="M109.4624,-233.7455C109.4624,-255.9419 109.4624,-290.5901 109.4624,-290.5901 109.4624,-290.5901 1002.1957,-290.5901 1002.1957,-290.5901"/>
<polygon fill="#000000" stroke="#000000" points="1002.1957,-294.0902 1012.1957,-290.5901 1002.1956,-287.0902 1002.1957,-294.0902"/>
</g>
</g>
</svg>
